# xmcd CD database file
# Copyright (C) 1993-1998 Ti Kan
# 
# Track frame offsets:
#     150
#     25160
#     33090
#     63610
#     78172
#     97512
#     139897
#     164047
#     204272
#     228365
#     282572
# 
# Disc length: 4094 seconds
# 
# Revision: 1
# Processed by: cddbd v1.4b41PL1 Copyright (c) Steve Scherf et al.
# Submitted via: DiscPlay 4.0.4
# 
DISCID=8b0ffc0b
DTITLE=Hezekiah Walker and The Love Fellowship Crusade Choir - Live in London 
DTITLE=at Wimbley
DYEAR=1900
DGENRE=
TTITLE0=Jesus Is My Help
TTITLE1=Job's Song Intro
TTITLE2=Job's Song (Blessed)
TTITLE3=We've Got The Victory
TTITLE4=Hold Out
TTITLE5=Try Christ
TTITLE6=I'm Waiting
TTITLE7=To Be Like Jesus
TTITLE8=Oh My Brother,Be Encouraged
TTITLE9=It Shall Come To Pass
TTITLE10=I Can Make It/ Get On Up
EXTD=
EXTT0=
EXTT1=
EXTT2=
EXTT3=
EXTT4=
EXTT5=
EXTT6=
EXTT7=
EXTT8=
EXTT9=
EXTT10=
PLAYORDER=
